<?xml version="1.0" encoding="UTF-8" standalone="no"?>
<svg
   xmlns:dc="http://purl.org/dc/elements/1.1/"
   xmlns:cc="http://creativecommons.org/ns#"
   xmlns:rdf="http://www.w3.org/1999/02/22-rdf-syntax-ns#"
   xmlns:svg="http://www.w3.org/2000/svg"
   xmlns="http://www.w3.org/2000/svg"
   xmlns:sodipodi="http://sodipodi.sourceforge.net/DTD/sodipodi-0.dtd"
   xmlns:inkscape="http://www.inkscape.org/namespaces/inkscape"
   width="111"
   height="28"
   fill="none"
   version="1.1"
   viewBox="0 0 111 28"
   id="svg18"
   sodipodi:docname="logo.svg"
   inkscape:version="1.0beta2 (2b71d25, 2019-12-03)">
  <metadata
     id="metadata24">
    <rdf:RDF>
      <cc:Work
         rdf:about="">
        <dc:format>image/svg+xml</dc:format>
        <dc:type
           rdf:resource="http://purl.org/dc/dcmitype/StillImage" />
        <dc:title />
      </cc:Work>
    </rdf:RDF>
  </metadata>
  <defs
     id="defs22" />
  <sodipodi:namedview
     inkscape:snap-page="false"
     pagecolor="#ffffff"
     bordercolor="#666666"
     inkscape:document-rotation="0"
     borderopacity="1"
     objecttolerance="10"
     gridtolerance="10"
     guidetolerance="10"
     inkscape:pageopacity="0"
     inkscape:pageshadow="2"
     inkscape:window-width="1349"
     inkscape:window-height="787"
     id="namedview20"
     showgrid="false"
     inkscape:zoom="3.6633567"
     inkscape:cx="85.20207"
     inkscape:cy="57.146933"
     inkscape:window-x="75"
     inkscape:window-y="25"
     inkscape:window-maximized="0"
     inkscape:current-layer="svg18" />
  <text
     x="30.177303"
     y="23.387123"
     fill="#999999"
     font-family="'Noto Sans Javanese'"
     font-size="24px"
     style="line-height:1.25;font-variant-ligatures:normal;font-variant-caps:normal;font-variant-numeric:normal;font-variant-east-asian:normal"
     xml:space="preserve"
     id="text16"><tspan
       dx="0 0 0"
       x="30.177303"
       y="23.387123"
       id="tspan14">千葉県</tspan></text>
  <path
     style="fill:#0000ff;stroke-width:0.263479"
     d=""
     id="path19"
     inkscape:connector-curvature="0" />
  <path
     style="fill:#0000ff;stroke-width:0.263479"
     d=""
     id="path21"
     inkscape:connector-curvature="0" />
  <path
     style="fill:#5599ff;stroke-width:0.244881"
     d=""
     id="path23"
     inkscape:connector-curvature="0" />
  <path
     style="fill:#2a7fff;stroke-width:0.18644"
     d=""
     id="path53"
     inkscape:connector-curvature="0" />
  <path
     style="fill:#2a7fff;stroke-width:0.18644"
     d=""
     id="path55"
     inkscape:connector-curvature="0" />
  <path
     inkscape:connector-curvature="0"
     id="path287"
     d="M 8.1340936,27.249037 C 7.2513029,26.664388 7.2324078,26.61492 7.8911334,26.612981 c 0.6879492,-0.002 0.7128894,-0.105019 0.6766174,-2.794045 -0.022714,-1.683389 0.1308147,-3.197345 0.3866501,-3.812964 0.376606,-0.90623 0.358351,-1.093905 -0.1623591,-1.669284 -0.5762806,-0.636784 -0.5541308,-0.685324 1.2509162,-2.741302 1.010673,-1.151172 2.322803,-2.463131 2.915844,-2.915467 1.448578,-1.104883 1.422769,-2.101348 -0.09141,-3.529402 C 11.96488,8.299338 11.491171,8.077697 10.793377,8.180111 L 9.8890269,8.312841 V 5.5736222 c 0,-2.3095228 -0.125133,-2.9742832 -0.797697,-4.2376918 -1.1307077,-2.1240293 -0.9913978,-2.3617427 0.460801,-0.7862927 1.4943101,1.6211356 4.8717951,3.4097327 6.4184891,3.3990069 1.555576,-0.010789 5.266332,-1.057768 6.749033,-1.9042232 0.442846,-0.2528147 1.079573,0.1849434 3.368186,2.3156697 l 2.822111,2.6274185 -1.382675,0.2141076 c -1.995499,0.309004 -4.049508,1.6390638 -5.501864,3.5626938 -1.906572,2.525236 -2.277638,3.664216 -2.215834,6.801472 0.06511,3.304691 -0.126744,3.564584 -3.583145,4.85403 -3.468246,1.293865 -5.27806,2.626897 -5.701515,4.199495 -0.392022,1.455857 -0.9296091,1.597454 -2.3908246,0.629729 z"
     style="fill:#2a7fff;stroke-width:0.31908" />
</svg>
